<svg xmlns="http://www.w3.org/2000/svg" xmlns:xlink="http://www.w3.org/1999/xlink" width="500" zoomAndPan="magnify" viewBox="0 0 375 374.999991" height="500" preserveAspectRatio="xMidYMid meet" version="1.0"><defs><clipPath id="10fe618f1e"><path d="M 81.542969 37.5 L 293.792969 37.5 L 293.792969 342 L 81.542969 342 Z M 81.542969 37.5 " clip-rule="nonzero"/></clipPath></defs><g clip-path="url(#10fe618f1e)"><path fill="#f2e9e4" d="M 293.421875 147.742188 C 293.472656 150.054688 293.453125 152.367188 293.363281 154.679688 C 293.273438 156.992188 293.109375 159.300781 292.878906 161.601562 C 292.644531 163.902344 292.339844 166.195312 291.96875 168.480469 C 291.59375 170.761719 291.148438 173.03125 290.632812 175.285156 C 290.121094 177.542969 289.539062 179.78125 288.886719 182 C 288.234375 184.21875 287.515625 186.417969 286.726562 188.59375 C 285.941406 190.769531 285.085938 192.917969 284.167969 195.042969 C 283.25 197.164062 282.265625 199.257812 281.214844 201.320312 C 280.167969 203.382812 279.058594 205.410156 277.882812 207.40625 C 276.710938 209.398438 275.476562 211.355469 274.183594 213.273438 C 272.890625 215.191406 271.539062 217.066406 270.128906 218.902344 C 268.722656 220.738281 267.257812 222.527344 265.738281 224.273438 C 264.21875 226.015625 262.644531 227.714844 261.023438 229.363281 C 259.398438 231.007812 257.726562 232.605469 256.003906 234.152344 C 254.28125 235.695312 252.511719 237.1875 250.699219 238.621094 C 248.886719 240.058594 247.027344 241.4375 245.128906 242.757812 C 243.230469 244.082031 241.292969 245.34375 239.316406 246.546875 C 237.339844 247.75 235.328125 248.886719 233.28125 249.96875 C 231.234375 251.046875 229.15625 252.058594 227.046875 253.011719 C 224.9375 253.960938 222.800781 254.847656 220.636719 255.664062 C 218.472656 256.484375 216.285156 257.234375 214.078125 257.921875 C 211.867188 258.605469 209.636719 259.21875 207.390625 259.769531 C 205.140625 260.316406 202.878906 260.792969 200.601562 261.199219 C 198.324219 261.609375 196.035156 261.945312 193.738281 262.210938 C 191.441406 262.480469 189.136719 262.675781 186.824219 262.800781 C 184.515625 262.925781 182.203125 262.980469 179.890625 262.960938 C 177.578125 262.945312 175.265625 262.855469 172.957031 262.695312 C 170.648438 262.535156 168.347656 262.304688 166.054688 262.003906 C 163.761719 261.703125 161.476562 261.332031 159.207031 260.890625 C 156.9375 260.449219 154.679688 259.9375 152.441406 259.355469 C 150.203125 258.773438 147.980469 258.125 145.78125 257.410156 C 143.582031 256.691406 141.40625 255.90625 139.257812 255.054688 L 139.257812 312.910156 C 139.257812 313.855469 139.210938 314.796875 139.117188 315.738281 C 139.027344 316.679688 138.886719 317.613281 138.703125 318.539062 C 138.519531 319.46875 138.289062 320.382812 138.015625 321.289062 C 137.742188 322.191406 137.421875 323.082031 137.0625 323.953125 C 136.699219 324.828125 136.296875 325.679688 135.851562 326.515625 C 135.40625 327.347656 134.921875 328.15625 134.394531 328.941406 C 133.871094 329.730469 133.308594 330.488281 132.707031 331.21875 C 132.109375 331.949219 131.476562 332.648438 130.808594 333.316406 C 130.140625 333.984375 129.441406 334.617188 128.710938 335.21875 C 127.980469 335.820312 127.21875 336.378906 126.433594 336.90625 C 125.648438 337.429688 124.839844 337.917969 124.003906 338.363281 C 123.171875 338.808594 122.320312 339.210938 121.445312 339.574219 C 120.574219 339.933594 119.683594 340.253906 118.777344 340.527344 C 117.875 340.800781 116.960938 341.03125 116.03125 341.214844 C 115.105469 341.398438 114.171875 341.539062 113.230469 341.632812 C 112.289062 341.722656 111.347656 341.769531 110.402344 341.769531 C 109.457031 341.769531 108.515625 341.722656 107.574219 341.632812 C 106.632812 341.539062 105.699219 341.402344 104.769531 341.214844 C 103.84375 341.03125 102.929688 340.804688 102.023438 340.527344 C 101.121094 340.253906 100.230469 339.9375 99.355469 339.574219 C 98.484375 339.214844 97.628906 338.808594 96.796875 338.363281 C 95.960938 337.917969 95.152344 337.433594 94.367188 336.90625 C 93.582031 336.382812 92.824219 335.820312 92.09375 335.222656 C 91.359375 334.621094 90.660156 333.988281 89.992188 333.320312 C 89.324219 332.652344 88.691406 331.949219 88.089844 331.21875 C 87.492188 330.488281 86.929688 329.730469 86.402344 328.945312 C 85.878906 328.160156 85.394531 327.347656 84.949219 326.515625 C 84.503906 325.683594 84.097656 324.828125 83.738281 323.953125 C 83.375 323.082031 83.058594 322.191406 82.785156 321.289062 C 82.507812 320.382812 82.28125 319.46875 82.09375 318.539062 C 81.910156 317.613281 81.773438 316.679688 81.679688 315.738281 C 81.589844 314.796875 81.542969 313.855469 81.542969 312.910156 L 81.542969 202.820312 C 81.542969 201.875 81.589844 200.933594 81.679688 199.992188 C 81.773438 199.050781 81.910156 198.117188 82.097656 197.191406 C 82.28125 196.265625 82.511719 195.351562 82.785156 194.445312 C 83.058594 193.542969 83.375 192.652344 83.738281 191.78125 C 84.097656 190.90625 84.503906 190.054688 84.949219 189.222656 C 85.394531 188.386719 85.878906 187.578125 86.402344 186.792969 C 86.929688 186.007812 87.492188 185.25 88.089844 184.519531 C 88.691406 183.789062 89.324219 183.089844 89.992188 182.421875 C 90.660156 181.753906 91.359375 181.121094 92.089844 180.519531 C 92.820312 179.921875 93.578125 179.359375 94.363281 178.832031 C 95.148438 178.308594 95.957031 177.824219 96.792969 177.378906 C 97.625 176.933594 98.476562 176.527344 99.351562 176.167969 C 100.222656 175.804688 101.113281 175.488281 102.015625 175.214844 C 102.921875 174.941406 103.835938 174.710938 104.761719 174.527344 C 105.6875 174.339844 106.621094 174.203125 107.5625 174.109375 C 108.503906 174.019531 109.445312 173.972656 110.390625 173.972656 C 111.222656 173.972656 112.046875 174.019531 112.859375 174.089844 C 113.707031 174.019531 114.566406 173.972656 115.441406 173.972656 C 117.585938 173.964844 119.703125 174.195312 121.796875 174.664062 C 123.886719 175.132812 125.902344 175.828125 127.835938 176.75 C 129.773438 177.667969 131.582031 178.792969 133.265625 180.121094 C 134.949219 181.445312 136.464844 182.941406 137.8125 184.609375 C 138.707031 185.734375 139.648438 186.820312 140.628906 187.867188 C 141.613281 188.917969 142.632812 189.925781 143.695312 190.894531 C 144.753906 191.867188 145.851562 192.792969 146.988281 193.675781 C 148.121094 194.558594 149.289062 195.394531 150.488281 196.1875 C 151.6875 196.980469 152.914062 197.722656 154.171875 198.417969 C 155.429688 199.113281 156.714844 199.757812 158.023438 200.355469 C 159.328125 200.949219 160.660156 201.492188 162.011719 201.980469 C 163.359375 202.472656 164.730469 202.910156 166.113281 203.292969 C 167.5 203.675781 168.898438 204.003906 170.308594 204.277344 C 171.71875 204.550781 173.140625 204.769531 174.566406 204.929688 C 175.996094 205.09375 177.425781 205.199219 178.863281 205.25 C 180.300781 205.296875 181.734375 205.292969 183.171875 205.230469 C 184.609375 205.167969 186.039062 205.046875 187.464844 204.871094 C 188.890625 204.699219 190.308594 204.46875 191.71875 204.179688 C 193.125 203.894531 194.519531 203.554688 195.902344 203.15625 C 197.285156 202.761719 198.648438 202.3125 199.996094 201.8125 C 201.339844 201.308594 202.667969 200.753906 203.96875 200.148438 C 205.273438 199.539062 206.550781 198.882812 207.800781 198.175781 C 209.050781 197.46875 210.273438 196.714844 211.464844 195.914062 C 212.660156 195.109375 213.816406 194.261719 214.941406 193.371094 C 216.070312 192.476562 217.15625 191.539062 218.210938 190.5625 C 219.261719 189.582031 220.273438 188.5625 221.246094 187.503906 C 222.21875 186.449219 223.148438 185.351562 224.035156 184.222656 C 224.921875 183.089844 225.761719 181.925781 226.558594 180.730469 C 227.355469 179.53125 228.101562 178.304688 228.800781 177.050781 C 229.5 175.792969 230.148438 174.511719 230.746094 173.207031 C 231.34375 171.898438 231.890625 170.570312 232.386719 169.222656 C 232.882812 167.871094 233.320312 166.507812 233.710938 165.121094 C 234.097656 163.738281 234.429688 162.339844 234.707031 160.929688 C 234.984375 159.519531 235.207031 158.101562 235.371094 156.675781 C 235.539062 155.246094 235.648438 153.816406 235.703125 152.378906 C 235.757812 150.941406 235.753906 149.507812 235.695312 148.070312 C 234.5625 119.070312 210.71875 95.765625 181.707031 95.269531 C 179.398438 95.230469 177.09375 95.335938 174.800781 95.585938 C 172.503906 95.835938 170.230469 96.230469 167.984375 96.765625 C 165.738281 97.300781 163.535156 97.976562 161.371094 98.792969 C 159.210938 99.609375 157.109375 100.554688 155.066406 101.632812 C 153.027344 102.714844 151.058594 103.917969 149.167969 105.246094 C 147.277344 106.570312 145.480469 108.011719 143.769531 109.566406 C 142.0625 111.121094 140.457031 112.777344 138.957031 114.535156 C 137.457031 116.289062 136.074219 118.132812 134.804688 120.0625 C 133.511719 122.058594 131.992188 123.867188 130.25 125.480469 C 128.503906 127.097656 126.589844 128.476562 124.503906 129.621094 C 122.417969 130.761719 120.222656 131.628906 117.921875 132.222656 C 115.617188 132.816406 113.277344 133.121094 110.898438 133.136719 L 110.140625 133.136719 C 87.40625 133.136719 73.839844 107.917969 86.25 88.875 C 87.875 86.371094 89.597656 83.933594 91.417969 81.5625 C 93.238281 79.195312 95.152344 76.902344 97.152344 74.683594 C 99.15625 72.46875 101.246094 70.335938 103.417969 68.285156 C 105.589844 66.234375 107.839844 64.269531 110.167969 62.398438 C 112.496094 60.527344 114.894531 58.75 117.363281 57.070312 C 119.835938 55.386719 122.367188 53.808594 124.960938 52.328125 C 127.558594 50.847656 130.207031 49.476562 132.914062 48.207031 C 135.617188 46.9375 138.367188 45.777344 141.164062 44.726562 C 143.960938 43.675781 146.796875 42.738281 149.667969 41.914062 C 152.539062 41.089844 155.4375 40.382812 158.367188 39.789062 C 161.296875 39.195312 164.242188 38.71875 167.207031 38.355469 C 170.171875 37.996094 173.148438 37.757812 176.132812 37.632812 C 179.121094 37.511719 182.105469 37.507812 185.089844 37.621094 C 188.074219 37.734375 191.050781 37.96875 194.019531 38.320312 C 196.984375 38.671875 199.933594 39.140625 202.863281 39.726562 C 205.792969 40.3125 208.695312 41.011719 211.566406 41.828125 C 214.441406 42.644531 217.277344 43.574219 220.078125 44.617188 C 222.878906 45.660156 225.632812 46.8125 228.339844 48.070312 C 231.046875 49.332031 233.703125 50.699219 236.300781 52.171875 C 238.902344 53.644531 241.4375 55.21875 243.914062 56.890625 C 246.386719 58.566406 248.792969 60.335938 251.125 62.203125 C 253.457031 64.066406 255.714844 66.023438 257.894531 68.066406 C 260.070312 70.113281 262.164062 72.238281 264.171875 74.453125 C 266.183594 76.664062 268.101562 78.949219 269.925781 81.3125 C 271.753906 83.679688 273.484375 86.109375 275.117188 88.613281 C 276.75 91.113281 278.28125 93.675781 279.710938 96.300781 C 281.140625 98.921875 282.464844 101.597656 283.679688 104.328125 C 284.898438 107.054688 286.003906 109.828125 287 112.644531 C 287.996094 115.460938 288.878906 118.3125 289.648438 121.199219 C 290.417969 124.085938 291.074219 127 291.609375 129.9375 C 292.148438 132.878906 292.566406 135.832031 292.871094 138.804688 C 293.171875 141.777344 293.355469 144.757812 293.421875 147.742188 Z M 293.421875 147.742188 " fill-opacity="1" fill-rule="nonzero"/></g></svg>